# xmcd
#
# Track frame offsets: 
#        150
#        16310
#        28914
#        46520
#        64191
#        84623
#        101044
#        112758
#        130122
#        146542
#        170263
#        188680
#        204408
#
# Disc length: 3418 seconds
#
# Revision: 5
# Processed by: cddbd v1.5.2PL0 Copyright (c) Steve Scherf et al.
# Submitted via: ExactAudioCopy v0.99pb5
#
DISCID=a30d580d
DTITLE=Cross Canadian Ragweed - Soul Gravy
DYEAR=2004
DGENRE=Rock and Roll
TTITLE0=Number
TTITLE1=Again
TTITLE2=Lonely Girl
TTITLE3=Cold Hearted Woman
TTITLE4=Sick and Tired
TTITLE5=Hammer Down
TTITLE6=Flowers
TTITLE7=Leave Me Alone
TTITLE8=Down
TTITLE9=Wanna Rock and Roll
TTITLE10=Alabama (NEW)
TTITLE11=Pay
TTITLE12=Too Far Gone
EXTD=YEAR: 2004 ID3G: 78
EXTT0=
EXTT1=
EXTT2=
EXTT3=
EXTT4=
EXTT5=
EXTT6=
EXTT7=
EXTT8=
EXTT9=
EXTT10=
EXTT11=
EXTT12=
PLAYORDER=
